<svg xmlns="http://www.w3.org/2000/svg" width="56.854" height="56.852" viewBox="0 0 56.854 56.852">
  <path id="goal" d="M35.915,21.706V13.968a2.992,2.992,0,0,1,.876-2.115l8.977-8.977a2.992,2.992,0,0,1,4.791.778l2.546,5.093L58.2,11.29a2.992,2.992,0,0,1,.778,4.794L50,25.061a2.992,2.992,0,0,1-2.116.877H40.146l-8.1,8.1a2.992,2.992,0,1,1-4.231-4.231ZM29.931,4.991a2.992,2.992,0,0,1,0,5.985A20.946,20.946,0,1,0,50.877,31.922a2.992,2.992,0,1,1,5.985,0A26.931,26.931,0,1,1,29.931,4.991Zm0,11.969a2.992,2.992,0,1,1,0,5.985,8.977,8.977,0,1,0,8.977,8.977,2.992,2.992,0,1,1,5.985,0A14.962,14.962,0,1,1,29.931,16.961ZM41.9,15.207v4.746h4.746l5.165-5.165-2.274-1.137A2.992,2.992,0,0,1,48.2,12.313l-1.137-2.271Z" transform="translate(-3 -2)" fill="#fff"/>
</svg>
