<svg xmlns="http://www.w3.org/2000/svg" width="54.054" height="54.052" viewBox="0 0 54.054 54.052">
  <path id="goal7" d="M-14.07-227.548a25.363,25.363,0,0,1-9.937-2.005,25.438,25.438,0,0,1-8.115-5.472,25.436,25.436,0,0,1-5.472-8.116,25.364,25.364,0,0,1-2.006-9.937,25.364,25.364,0,0,1,2.006-9.937,25.436,25.436,0,0,1,5.472-8.116,25.438,25.438,0,0,1,8.115-5.472,25.363,25.363,0,0,1,9.937-2.005,1.594,1.594,0,0,1,1.593,1.592,1.594,1.594,0,0,1-1.593,1.592,22.21,22.21,0,0,0-8.7,1.757,22.25,22.25,0,0,0-7.1,4.788,22.275,22.275,0,0,0-4.789,7.1,22.209,22.209,0,0,0-1.757,8.7,22.209,22.209,0,0,0,1.757,8.7,22.276,22.276,0,0,0,4.789,7.1,22.251,22.251,0,0,0,7.1,4.788,22.21,22.21,0,0,0,8.7,1.757,22.219,22.219,0,0,0,8.7-1.757,22.263,22.263,0,0,0,7.1-4.788,22.276,22.276,0,0,0,4.789-7.1,22.209,22.209,0,0,0,1.756-8.7,1.594,1.594,0,0,1,1.593-1.592,1.594,1.594,0,0,1,1.592,1.592,25.364,25.364,0,0,1-2.006,9.937,25.436,25.436,0,0,1-5.472,8.116,25.438,25.438,0,0,1-8.115,5.472A25.366,25.366,0,0,1-14.07-227.548Zm0-11.969a13.472,13.472,0,0,1-9.589-3.972,13.473,13.473,0,0,1-3.973-9.589,13.473,13.473,0,0,1,3.973-9.589,13.472,13.472,0,0,1,9.589-3.972,1.594,1.594,0,0,1,1.593,1.592,1.594,1.594,0,0,1-1.593,1.592,10.388,10.388,0,0,0-10.376,10.377A10.388,10.388,0,0,0-14.07-242.7,10.389,10.389,0,0,0-3.693-253.078,1.594,1.594,0,0,1-2.1-254.67a1.594,1.594,0,0,1,1.592,1.592,13.473,13.473,0,0,1-3.973,9.589A13.473,13.473,0,0,1-14.07-239.517Zm0-11.969a1.585,1.585,0,0,1-1.126-.466,1.582,1.582,0,0,1-.466-1.126A1.582,1.582,0,0,1-15.2-254.2l8.1-8.1.41-.409v-8.319a1.6,1.6,0,0,1,.466-1.125l8.977-8.977a1.605,1.605,0,0,1,1.125-.465,1.627,1.627,0,0,1,.256.021,1.6,1.6,0,0,1,1.168.859l2.547,5.092.209.418.418.209,5.093,2.543a1.6,1.6,0,0,1,.859,1.17,1.6,1.6,0,0,1-.446,1.382L5.01-260.93a1.579,1.579,0,0,1-1.126.467H-4.433l-.41.41-8.1,8.1A1.582,1.582,0,0,1-14.07-251.486ZM3.447-277.321h0l-1.372,1.372-5.164,5.165-.41.41v6.726H3.226l.41-.41L8.8-269.222l1.373-1.373-1.737-.868L6.162-272.6a1.606,1.606,0,0,1-.708-.711l-1.138-2.272-.869-1.736Z" transform="translate(39.6 281.6)" fill="#8aa2f5"/>
</svg>
