<svg xmlns="http://www.w3.org/2000/svg" width="53.654" height="53.653" viewBox="0 0 53.654 53.653">
  <path id="goal2" d="M-14.07-227.748a25.166,25.166,0,0,1-9.859-1.99,25.24,25.24,0,0,1-8.052-5.43,25.245,25.245,0,0,1-5.43-8.051,25.175,25.175,0,0,1-1.99-9.859,25.175,25.175,0,0,1,1.99-9.86,25.247,25.247,0,0,1,5.43-8.052,25.235,25.235,0,0,1,8.052-5.429,25.15,25.15,0,0,1,9.859-1.99,1.394,1.394,0,0,1,1.392,1.392,1.394,1.394,0,0,1-1.392,1.392,22.4,22.4,0,0,0-8.776,1.772,22.474,22.474,0,0,0-7.166,4.831,22.445,22.445,0,0,0-4.831,7.166,22.407,22.407,0,0,0-1.773,8.777,22.4,22.4,0,0,0,1.773,8.776,22.439,22.439,0,0,0,4.831,7.167,22.473,22.473,0,0,0,7.166,4.831,22.413,22.413,0,0,0,8.776,1.772A22.415,22.415,0,0,0-5.293-232.3a22.473,22.473,0,0,0,7.166-4.831A22.452,22.452,0,0,0,6.7-244.3a22.4,22.4,0,0,0,1.773-8.776,1.394,1.394,0,0,1,1.392-1.392,1.394,1.394,0,0,1,1.392,1.392,25.175,25.175,0,0,1-1.99,9.859,25.245,25.245,0,0,1-5.43,8.051,25.24,25.24,0,0,1-8.052,5.43A25.168,25.168,0,0,1-14.07-227.748Zm0-11.969a13.273,13.273,0,0,1-9.447-3.913,13.278,13.278,0,0,1-3.914-9.448,13.274,13.274,0,0,1,3.914-9.448,13.273,13.273,0,0,1,9.447-3.913,1.394,1.394,0,0,1,1.392,1.392,1.394,1.394,0,0,1-1.392,1.392,10.589,10.589,0,0,0-10.577,10.577A10.589,10.589,0,0,0-14.07-242.5,10.589,10.589,0,0,0-3.492-253.078,1.394,1.394,0,0,1-2.1-254.471a1.394,1.394,0,0,1,1.392,1.392,13.278,13.278,0,0,1-3.914,9.448A13.274,13.274,0,0,1-14.07-239.717Zm0-11.969a1.382,1.382,0,0,1-.984-.408,1.384,1.384,0,0,1-.409-.985,1.381,1.381,0,0,1,.409-.985l8.1-8.1.469-.469v-8.4a1.4,1.4,0,0,1,.408-.984L2.9-280.993a1.4,1.4,0,0,1,.983-.407,1.427,1.427,0,0,1,.223.018,1.4,1.4,0,0,1,1.022.751l2.546,5.092.238.478.478.238,5.092,2.543a1.4,1.4,0,0,1,.752,1.022,1.4,1.4,0,0,1-.39,1.208l-8.977,8.978a1.386,1.386,0,0,1-.985.408h-8.4l-.469.469-8.1,8.1A1.381,1.381,0,0,1-14.07-251.686ZM3.5-277.658h0l-1.569,1.569-5.164,5.164-.469.469v7.008H3.308l.469-.468,5.164-5.165,1.57-1.57-1.985-.993L6.251-272.78a1.4,1.4,0,0,1-.618-.622L4.5-275.674,3.5-277.658Z" transform="translate(39.4 281.4)" fill="#fff"/>
</svg>
