<svg xmlns="http://www.w3.org/2000/svg" width="63.169" height="56.852" viewBox="0 0 63.169 56.852">
  <path id="heart" d="M36.336,51.43a76.035,76.035,0,0,0,9.38-6.967C54.1,37.126,58.982,29.215,58.846,21.154a12.157,12.157,0,0,0-3.458-8.332A11.528,11.528,0,0,0,47.1,9.317c-5.976.009-10.476,3.424-13.793,10.773a3.159,3.159,0,1,1-5.761-2.6C31.816,8.028,38.427,3.016,47.084,3A17.845,17.845,0,0,1,59.9,8.4,18.47,18.47,0,0,1,65.166,21.05c.174,10.306-5.644,19.73-15.287,28.173A82.27,82.27,0,0,1,35.022,59.506a3.158,3.158,0,0,1-2.874,0c-.262-.133-.72-.379-1.349-.733A82.092,82.092,0,0,1,17.155,49.1C7.592,40.689,1.834,31.3,2,21.053A18.47,18.47,0,0,1,7.263,8.4,17.845,17.845,0,0,1,20.08,3a19.323,19.323,0,0,1,6.873,1.232,3.158,3.158,0,1,1-2.236,5.907,13.066,13.066,0,0,0-4.652-.822,11.528,11.528,0,0,0-8.291,3.506,12.157,12.157,0,0,0-3.458,8.332c-.136,8.016,4.7,15.89,13.006,23.2a75.861,75.861,0,0,0,12.261,8.733C34.422,52.609,35.347,52.053,36.336,51.43Z" transform="translate(-2.001 -3)" fill="#fff"/>
</svg>
