<svg xmlns="http://www.w3.org/2000/svg" width="45.479" height="56.852" viewBox="0 0 45.479 56.852">
  <path id="rocket" d="M26.739,8.139c-5.634,3.735-8.527,11.037-8.527,22.284a2.842,2.842,0,0,1-.832,2.009l-3.534,3.534A14.212,14.212,0,0,0,9.685,46.014V56A2.842,2.842,0,1,1,4,56V46.014A19.9,19.9,0,0,1,9.828,31.943l2.711-2.708C12.772,15.876,17,6.763,25.415,2.329a2.842,2.842,0,0,1,2.652,0c8.408,4.434,12.64,13.544,12.876,26.906l2.709,2.712a19.9,19.9,0,0,1,5.827,14.07V56a2.842,2.842,0,0,1-5.054,1.785,38.245,38.245,0,0,0-9.465-8.783c-.557.947-1.148,1.9-1.782,2.868A2.842,2.842,0,0,1,30.8,53.162H22.68A2.842,2.842,0,0,1,20.3,51.875q-.951-1.45-1.78-2.865-.871.531-1.7,1.131a2.843,2.843,0,1,1-3.34-4.6,28.106,28.106,0,0,1,5-2.931,2.842,2.842,0,0,1,3.678,1.268q.925,1.761,2.075,3.6h5q1.147-1.842,2.075-3.6a2.842,2.842,0,0,1,3.672-1.268,32.192,32.192,0,0,1,8.806,6.1V46.014a14.212,14.212,0,0,0-4.161-10.048L36.1,32.433a2.842,2.842,0,0,1-.833-2.01C35.267,19.173,32.373,11.871,26.739,8.139Zm0,13.757a2.842,2.842,0,1,1,2.842-2.842A2.842,2.842,0,0,1,26.739,21.9Zm0,8.527a2.842,2.842,0,1,1,2.842-2.842A2.842,2.842,0,0,1,26.739,30.423Z" transform="translate(-4 -2.001)" fill="#fff"/>
</svg>
