<svg id="seanhalpin_logo7_9" xmlns="http://www.w3.org/2000/svg" xmlns:xlink="http://www.w3.org/1999/xlink" width="282" height="282" viewBox="0 0 282 282">
  <defs>
    <clipPath id="clip-path">
      <circle id="Ellipse_1" data-name="Ellipse 1" cx="141" cy="141" r="141" fill="none"/>
    </clipPath>
  </defs>
  <path id="oval2" d="M141,0A141,141,0,1,1,0,141,141,141,0,0,1,141,0Z" fill="rgba(217,219,229,0.6)"/>
  <g id="Group_1" data-name="Group 1" clip-path="url(#clip-path)">
    <g id="group">
      <g id="page1">
        <g id="layer_1" data-name="layer 1">
          <g id="layer_1-2" data-name="layer 1">
            <path id="bezier2" d="M106.18,234.3c11.06,4.14,13.23,25.63,4.84,48s-24.15,37.17-35.2,33-13.23-25.64-4.84-48S95.13,230.16,106.18,234.3Z" fill="#f3c5ad"/>
            <path id="bezier" d="M85.45,313.56v17.1H198.76v-17.1Z"/>
            <path id="bezier3" d="M69.5,287.42c-1.68-1.11-1.74-5.52-.23-10.18q-.26.57-.48,1.17c-1.94,5.08-2,10.18-.2,11.39s4.88-1.93,6.82-7c.15-.41.29-.81.42-1.21-1.93,4.38-4.65,6.95-6.33,5.84Z" fill="rgba(26,23,24,0.3)"/>
            <path id="bezier4" d="M171.82,222.3c-11.06,4.14-13.23,25.63-4.84,48s24.15,37.17,35.2,33,13.23-25.64,4.84-48S182.87,218.16,171.82,222.3Z" fill="#f3c5ad"/>
            <path id="bezier5" d="M195.56,296.25c-3.27,0-5.95-5-6.36-11.53q-.06.84-.06,1.71c0,7.32,2.87,13.25,6.41,13.25s6.42-5.93,6.42-13.25a13.813,13.813,0,0,0-.07-1.71C201.5,291.22,198.81,296.25,195.56,296.25Z" fill="rgba(26,23,24,0.3)"/>
            <path id="bezier6" d="M209.45,248.39l-19.56-27.77-15.76,7.24-1.4-4.57H109.82l-1.08,4-14.42-6.63L74.76,248.39l25,11.48L84.38,315.7H201l-17-55.61Z" fill="#0f8e25"/>
            <path id="bezier7" d="M142.1,252.67a18.16,18.16,0,1,0-18.17-18.164A18.16,18.16,0,0,0,142.1,252.67Z" fill="#fff"/>
            <path id="bezier8" d="M142.07,249.4c8.25,0,14.93-6.24,14.93-13.93s-6.68-13.92-14.93-13.92-14.93,6.23-14.93,13.92S133.82,249.4,142.07,249.4Z" fill="#d5a691"/>
            <path id="bezier9" d="M46.43,168.27A14.43,14.43,0,1,0,32,153.85a14.43,14.43,0,0,0,14.43,14.42Z" fill="#f3c5ad"/>
            <path id="bezier10" d="M234.57,168.27a14.43,14.43,0,1,0-14.43-14.42,14.43,14.43,0,0,0,14.43,14.42Z" fill="#f3c5ad"/>
            <path id="bezier11" d="M141.57,235.58c52.84,0,95.67-33.49,95.67-74.79S194.41,86,141.57,86,45.9,119.49,45.9,160.79,88.73,235.58,141.57,235.58Z" fill="#f3c5ad"/>
            <path id="bezier12" d="M97.21,163.77c0,9.33-7.42-12-16.57-12s-16.57,21.32-16.57,12a16.57,16.57,0,0,1,33.14,0Z" fill="rgba(26,23,24,0.6)"/>
            <path id="bezier13" d="M224.41,163.77c0,9.33-7.42-12-16.57-12s-16.56,21.32-16.56,12a16.57,16.57,0,1,1,33.13,0Z" fill="rgba(26,23,24,0.6)"/>
            <path id="bezier14" d="M206.24,134.82c11.85,0,21.55,8.15,22.38,18.49,0-.47.07-.95.07-1.43,0-11-10.05-19.93-22.45-19.93s-22.45,8.92-22.45,19.93a9.449,9.449,0,0,0,.07,1.43c.83-10.33,10.53-18.49,22.38-18.49Z" fill="rgba(26,23,24,0.5)"/>
            <path id="bezier15" d="M80.1,134.82c11.86,0,21.56,8.15,22.39,18.49,0-.47.06-.95.06-1.43,0-11-10-19.93-22.45-19.93s-22.44,8.92-22.44,19.93a11.011,11.011,0,0,0,.06,1.43c.83-10.33,10.53-18.49,22.38-18.49Z" fill="rgba(26,23,24,0.5)"/>
            <path id="Union_2" data-name="Union 2" d="M-1037.6,1.825l-52.13,16.46-83.27,26.3v-59.82h.114c2.881-30.235,44.543-54.22,95.537-54.22a147.343,147.343,0,0,1,46.949,7.39c1.426.467,4.33-2.74,7.22-5.945,2.926-3.246,5.836-6.493,7.18-5.925,3.06,1.31-.1,17.72,2.68,19.23.75.4,1.5.82,2.23,1.24.758.438,3.576-2.26,6.385-4.958s5.633-5.418,6.345-4.952c1.67,1.059-5.04,14.88-3.51,16.06,11.609,8.949,18.922,20.018,20.056,32.08h.155v59.82Z" transform="translate(1218.9 114.065)" fill="#db8651"/>
            <path id="bezier18" d="M141,317.84v13.89h1.07V317.84Z" fill="#2c2723"/>
            <path id="bezier19" d="M142.1,171.47a5.34,5.34,0,0,1,5.24,4.28,5.345,5.345,0,1,0-10.47,0,5.34,5.34,0,0,1,5.23-4.28Z" fill="rgba(26,23,24,0.5)"/>
            <path id="bezier20" d="M203.57,196.05a3.74,3.74,0,1,0-3.74-3.74,3.74,3.74,0,0,0,3.74,3.74Z" fill="rgba(219,134,81,0.5)"/>
            <path id="bezier21" d="M210,200.32a1.6,1.6,0,1,0-1.6-1.6A1.6,1.6,0,0,0,210,200.32Z" fill="rgba(219,134,81,0.5)"/>
            <path id="bezier22" d="M195.55,200.32a2.14,2.14,0,1,0-2.14-2.14A2.14,2.14,0,0,0,195.55,200.32Z" fill="rgba(219,134,81,0.5)"/>
            <path id="bezier23" d="M200.36,199.25a.54.54,0,1,0-.53-.53.54.54,0,0,0,.53.53Z" fill="rgba(219,134,81,0.5)"/>
            <path id="bezier24" d="M86,196.05a3.74,3.74,0,1,0-3.74-3.74A3.74,3.74,0,0,0,86,196.05Z" fill="rgba(219,134,81,0.5)"/>
            <path id="bezier25" d="M92.4,200.32a1.6,1.6,0,1,0-1.138-.465A1.6,1.6,0,0,0,92.4,200.32Z" fill="rgba(219,134,81,0.5)"/>
            <path id="bezier26" d="M76.9,200.32a2.13,2.13,0,1,0-1.516-.624A2.13,2.13,0,0,0,76.9,200.32Z" fill="rgba(219,134,81,0.5)"/>
            <path id="bezier27" d="M81.71,199.25a.54.54,0,1,0-.54-.53.53.53,0,0,0,.54.53Z" fill="rgba(219,134,81,0.5)"/>
            <path id="cheek" d="M75.64,182.16a28.89,28.89,0,0,0-21.19,9.23c9.09,16,25.09,29,45,36.71a29.25,29.25,0,0,0-23.82-45.94Z" fill="rgba(7,7,6,0.05)"/>
            <path id="cheek-2" data-name="cheek" d="M207.5,182.16a28.89,28.89,0,0,1,21.19,9.23c-9.09,16-25.09,29-45,36.71a29.25,29.25,0,0,1,23.82-45.94Z" fill="rgba(7,7,6,0.05)"/>
            <path id="bezier30" d="M74.22,336c2.66,0,4.81-1.67,4.81-3.74s-2.15-3.74-4.81-3.74-4.81,1.68-4.81,3.74S71.57,336,74.22,336Z" fill="#2c2723"/>
            <path id="bezier31" d="M81.71,336c2.65,0,4.81-1.67,4.81-3.74s-2.16-3.74-4.81-3.74-4.81,1.68-4.81,3.74S79.05,336,81.71,336Z" fill="#2c2723"/>
            <path id="bezier32" d="M89.19,336c2.66,0,4.81-1.67,4.81-3.74s-2.15-3.74-4.81-3.74-4.81,1.68-4.81,3.74S86.53,336,89.19,336Z" fill="#2c2723"/>
            <path id="bezier33" d="M97.74,336c2.66,0,4.81-1.67,4.81-3.74s-2.15-3.74-4.81-3.74-4.81,1.68-4.81,3.74S95.08,336,97.74,336Z" fill="#2c2723"/>
            <path id="bezier34" d="M105.22,336c2.66,0,4.81-1.67,4.81-3.74s-2.15-3.74-4.81-3.74-4.81,1.68-4.81,3.74S102.57,336,105.22,336Z" fill="#2c2723"/>
            <path id="bezier35" d="M112.71,336c2.65,0,4.81-1.67,4.81-3.74s-2.16-3.74-4.81-3.74-4.81,1.68-4.81,3.74S110.05,336,112.71,336Z" fill="#2c2723"/>
            <path id="bezier36" d="M121.26,336c2.66,0,4.81-1.67,4.81-3.74s-2.15-3.74-4.81-3.74-4.81,1.68-4.81,3.74S118.6,336,121.26,336Z" fill="#2c2723"/>
            <path id="bezier37" d="M128.74,336c2.66,0,4.81-1.67,4.81-3.74s-2.15-3.74-4.81-3.74-4.81,1.68-4.81,3.74S126.08,336,128.74,336Z" fill="#2c2723"/>
            <path id="bezier38" d="M136.22,336c2.66,0,4.81-1.67,4.81-3.74s-2.15-3.74-4.81-3.74-4.81,1.68-4.81,3.74S133.57,336,136.22,336Z" fill="#2c2723"/>
            <path id="bezier39" d="M146.91,336c2.66,0,4.81-1.67,4.81-3.74s-2.15-3.74-4.81-3.74-4.81,1.68-4.81,3.74S144.26,336,146.91,336Z" fill="#2c2723"/>
            <path id="bezier40" d="M154.4,336c2.65,0,4.81-1.67,4.81-3.74s-2.16-3.74-4.81-3.74-4.81,1.68-4.81,3.74S151.74,336,154.4,336Z" fill="#2c2723"/>
            <path id="bezier41" d="M161.88,336c2.66,0,4.81-1.67,4.81-3.74s-2.15-3.74-4.81-3.74-4.81,1.68-4.81,3.74S159.22,336,161.88,336Z" fill="#2c2723"/>
            <path id="bezier42" d="M170.43,336c2.66,0,4.81-1.67,4.81-3.74s-2.15-3.74-4.81-3.74-4.81,1.68-4.81,3.74S167.77,336,170.43,336Z" fill="#2c2723"/>
            <path id="bezier43" d="M177.91,336c2.66,0,4.81-1.67,4.81-3.74s-2.15-3.74-4.81-3.74-4.81,1.68-4.81,3.74S175.26,336,177.91,336Z" fill="#2c2723"/>
            <path id="bezier44" d="M185.4,336c2.65,0,4.81-1.67,4.81-3.74s-2.16-3.74-4.81-3.74-4.81,1.68-4.81,3.74S182.74,336,185.4,336Z" fill="#2c2723"/>
            <path id="bezier45" d="M194,336c2.65,0,4.81-1.67,4.81-3.74s-2.16-3.74-4.81-3.74-4.81,1.68-4.81,3.74S191.29,336,194,336Z" fill="#2c2723"/>
            <path id="bezier46" d="M201.43,336c2.66,0,4.81-1.67,4.81-3.74s-2.15-3.74-4.81-3.74-4.81,1.68-4.81,3.74S198.77,336,201.43,336Z" fill="#2c2723"/>
            <path id="bezier47" d="M208.91,336c2.66,0,4.81-1.67,4.81-3.74s-2.15-3.74-4.81-3.74-4.81,1.68-4.81,3.74S206.26,336,208.91,336Z" fill="#2c2723"/>
            <path id="bezier48" d="M142.1,180c24.21,0,43.83-2.15,43.83-4.81s-19.62-4.8-43.83-4.8-43.82,2.15-43.82,4.8S117.9,180,142.1,180Z" fill="rgba(26,23,24,0.05)"/>
            <path id="bezier49" d="M105.76,317.84c-20.08,0-36.35,6.69-36.35,15H142.1c0-8.26-16.27-15-36.34-15Z" fill="#fff"/>
            <path id="bezier50" d="M178.45,317.84c-20.07,0-36.35,6.69-36.35,15h72.69c0-8.26-16.27-15-36.34-15Z" fill="#fff"/>
            <path id="bezier51" d="M69.88,269c-2.06-2.88-4.89-4.38-6.33-3.35s-.94,4.2,1.12,7.07,4.9,4.38,6.34,3.36S71.94,271.85,69.88,269Z" fill="#f1b89c"/>
          </g>
          <path id="bezier52" d="M173.1,199.81c0,6.76-13.38,12.26-29.93,12.26s-29.93-5.51-29.93-12.26,13.38-12.31,29.93-12.31S173.1,193,173.1,199.81Z" fill="none" stroke="#836658" stroke-width="3"/>
          <path id="bezier53" d="M110,184.29v15h65.21v-15Z" fill="#f3c5ad"/>
        </g>
      </g>
    </g>
  </g>
</svg>
