<svg xmlns="http://www.w3.org/2000/svg" xmlns:xlink="http://www.w3.org/1999/xlink" viewBox="0 0 217 295.94"><defs><style>.cls-1,.cls-16{fill:none;}.cls-2{clip-path:url(#clip-path);}.cls-3{fill:#f3c6ae;}.cls-4{fill:#010101;}.cls-14,.cls-5,.cls-9{fill:#1a1819;}.cls-5{fill-opacity:0.3;}.cls-6{fill:#39a589;}.cls-7{fill:#fff;}.cls-8{fill:#d5a792;}.cls-9{fill-opacity:0.38;}.cls-10{fill:#eca141;}.cls-11{fill:#2c2824;}.cls-12{fill:#f5ac2c;fill-opacity:0.5;}.cls-13{fill:#090909;}.cls-13,.cls-14{fill-opacity:0.05;}.cls-15{fill:#f0b89c;}.cls-16{stroke:#a48677;stroke-width:3px;}</style><clipPath id="clip-path" transform="translate(-0.37 -1.66)"><rect class="cls-1" width="217" height="217"/></clipPath></defs><g id="Layer_2" data-name="Layer 2"><g id="Layer_1-2" data-name="Layer 1"><g class="cls-2"><g id="group"><g id="page1"><g id="layer_1-3" data-name="layer 1"><g id="layer_1-4" data-name="layer 1"><path id="bezier2" class="cls-3" d="M74.55,195.9c11.06,4.14,13.23,25.63,4.84,48s-24.15,37.17-35.2,33-13.23-25.64-4.84-48S63.5,191.76,74.55,195.9Z" transform="translate(-0.37 -1.66)"/><path id="bezier" class="cls-4" d="M53.82,275.16v17.1H167.13v-17.1Z" transform="translate(-0.37 -1.66)"/><path id="bezier3" class="cls-5" d="M37.87,249c-1.68-1.11-1.74-5.52-.23-10.18q-.26.57-.48,1.17c-1.94,5.08-2,10.18-.2,11.39s4.88-1.93,6.82-7c.15-.41.29-.81.42-1.21-1.93,4.38-4.65,6.95-6.33,5.84Z" transform="translate(-0.37 -1.66)"/><path id="bezier4" class="cls-3" d="M140.19,183.9c-11.06,4.14-13.23,25.63-4.84,48s24.15,37.17,35.2,33,13.23-25.64,4.84-48S151.24,179.76,140.19,183.9Z" transform="translate(-0.37 -1.66)"/><path id="bezier5" class="cls-5" d="M163.93,257.85c-3.27,0-6-5-6.36-11.53q-.06.84-.06,1.71c0,7.32,2.87,13.25,6.41,13.25s6.42-5.93,6.42-13.25c0-.58,0-1.15-.07-1.71-.4,6.5-3.09,11.53-6.34,11.53Z" transform="translate(-0.37 -1.66)"/><path id="bezier6" class="cls-6" d="M177.82,210l-19.56-27.77-15.76,7.24-1.4-4.57H78.19l-1.08,4-14.42-6.63L43.13,210l25,11.48L52.75,277.3H169.38l-17-55.61Z" transform="translate(-0.37 -1.66)"/><path id="bezier7" class="cls-7" d="M110.47,214.27A18.16,18.16,0,1,0,92.3,196.11,18.17,18.17,0,0,0,110.47,214.27Z" transform="translate(-0.37 -1.66)"/><path id="bezier8" class="cls-8" d="M110.44,211c8.25,0,14.93-6.24,14.93-13.93s-6.68-13.92-14.93-13.92-14.93,6.23-14.93,13.92S102.19,211,110.44,211Z" transform="translate(-0.37 -1.66)"/><path id="bezier9" class="cls-3" d="M14.8,129.87A14.43,14.43,0,1,0,.37,115.45,14.43,14.43,0,0,0,14.8,129.87Z" transform="translate(-0.37 -1.66)"/><path id="bezier10" class="cls-3" d="M202.94,129.87a14.43,14.43,0,1,0-14.43-14.42A14.43,14.43,0,0,0,202.94,129.87Z" transform="translate(-0.37 -1.66)"/><path id="bezier11" class="cls-3" d="M109.94,197.18c52.84,0,95.67-33.49,95.67-74.79s-42.83-74.78-95.67-74.78S14.27,81.09,14.27,122.39,57.1,197.18,109.94,197.18Z" transform="translate(-0.37 -1.66)"/><path id="bezier12" class="cls-9" d="M65.58,125.37c0,9.33-7.42-12-16.57-12s-16.57,21.32-16.57,12a16.57,16.57,0,1,1,33.14,0Z" transform="translate(-0.37 -1.66)"/><path id="bezier13" class="cls-9" d="M192.78,125.37c0,9.33-7.42-12-16.57-12s-16.56,21.32-16.56,12a16.57,16.57,0,1,1,33.13,0Z" transform="translate(-0.37 -1.66)"/><path id="bezier14" class="cls-5" d="M174.61,96.42c11.85,0,21.55,8.15,22.38,18.49,0-.47.07-1,.07-1.43,0-11-10.05-19.93-22.45-19.93s-22.45,8.92-22.45,19.93c0,.48,0,1,.07,1.43.83-10.33,10.53-18.49,22.38-18.49Z" transform="translate(-0.37 -1.66)"/><path id="bezier15" class="cls-5" d="M48.47,96.42c11.86,0,21.56,8.15,22.39,18.49,0-.47.06-1,.06-1.43,0-11-10.05-19.93-22.45-19.93S26,102.47,26,113.48c0,.48,0,1,.06,1.43.83-10.33,10.53-18.49,22.38-18.49Z" transform="translate(-0.37 -1.66)"/><path id="bezier16" class="cls-10" d="M205.47,66.84c.09-1,.14-2.07.14-3.11,0-13.34-7.55-25.62-20.21-35.38-1.53-1.18,5.18-15,3.51-16.06-1.42-.93-11.21,10.79-12.73,9.91-.73-.42-1.48-.84-2.23-1.24-2.78-1.51.38-17.92-2.68-19.23-2.67-1.14-11.53,12.81-14.4,11.83a147.32,147.32,0,0,0-46.95-7.39C58.06,6.17,15.85,31,14.27,61.94h191.2v4.9Z" transform="translate(-0.37 -1.66)"/><path id="bezier17" class="cls-10" d="M205.61,60.43H14.27v59.82L97.54,94l52.13-16.46,55.94,42.76V60.43Z" transform="translate(-0.37 -1.66)"/><path id="bezier18" class="cls-11" d="M109.4,279.44v13.89h1.07V279.44Z" transform="translate(-0.37 -1.66)"/><path id="bezier19" class="cls-5" d="M110.47,133.07a5.34,5.34,0,0,1,5.24,4.28,5.33,5.33,0,0,0-5.24-6.41,5.34,5.34,0,0,0-5.34,5.34,5.39,5.39,0,0,0,.11,1.07,5.34,5.34,0,0,1,5.23-4.28Z" transform="translate(-0.37 -1.66)"/><path id="bezier20" class="cls-12" d="M171.94,157.65a3.74,3.74,0,1,0-3.74-3.74A3.74,3.74,0,0,0,171.94,157.65Z" transform="translate(-0.37 -1.66)"/><path id="bezier21" class="cls-12" d="M178.35,161.92a1.6,1.6,0,1,0-1.6-1.6A1.61,1.61,0,0,0,178.35,161.92Z" transform="translate(-0.37 -1.66)"/><path id="bezier22" class="cls-12" d="M163.92,161.92a2.14,2.14,0,1,0-2.14-2.14A2.14,2.14,0,0,0,163.92,161.92Z" transform="translate(-0.37 -1.66)"/><path id="bezier23" class="cls-12" d="M168.73,160.85a.54.54,0,1,0-.53-.53A.54.54,0,0,0,168.73,160.85Z" transform="translate(-0.37 -1.66)"/><path id="bezier24" class="cls-12" d="M54.35,157.65a3.74,3.74,0,1,0-3.74-3.74A3.74,3.74,0,0,0,54.35,157.65Z" transform="translate(-0.37 -1.66)"/><path id="bezier25" class="cls-12" d="M60.77,161.92a1.6,1.6,0,1,0-1.61-1.6A1.6,1.6,0,0,0,60.77,161.92Z" transform="translate(-0.37 -1.66)"/><path id="bezier26" class="cls-12" d="M45.27,161.92a2.14,2.14,0,1,0-2.14-2.14A2.13,2.13,0,0,0,45.27,161.92Z" transform="translate(-0.37 -1.66)"/><path id="bezier27" class="cls-12" d="M50.08,160.85a.54.54,0,1,0-.54-.53A.53.53,0,0,0,50.08,160.85Z" transform="translate(-0.37 -1.66)"/><path id="bezier28" class="cls-13" d="M44,143.76A28.89,28.89,0,0,0,22.82,153c9.09,16,25.09,29,45,36.71A29.25,29.25,0,0,0,44,143.76Z" transform="translate(-0.37 -1.66)"/><path id="bezier29" class="cls-13" d="M175.87,143.76A28.89,28.89,0,0,1,197.06,153c-9.09,16-25.09,29-45,36.71a29.25,29.25,0,0,1,23.82-45.94Z" transform="translate(-0.37 -1.66)"/><path id="bezier30" class="cls-11" d="M42.59,297.6c2.66,0,4.81-1.67,4.81-3.74s-2.15-3.74-4.81-3.74-4.81,1.68-4.81,3.74S39.94,297.6,42.59,297.6Z" transform="translate(-0.37 -1.66)"/><path id="bezier31" class="cls-11" d="M50.08,297.6c2.65,0,4.81-1.67,4.81-3.74s-2.16-3.74-4.81-3.74-4.81,1.68-4.81,3.74S47.42,297.6,50.08,297.6Z" transform="translate(-0.37 -1.66)"/><path id="bezier32" class="cls-11" d="M57.56,297.6c2.66,0,4.81-1.67,4.81-3.74s-2.15-3.74-4.81-3.74-4.81,1.68-4.81,3.74S54.9,297.6,57.56,297.6Z" transform="translate(-0.37 -1.66)"/><path id="bezier33" class="cls-11" d="M66.11,297.6c2.66,0,4.81-1.67,4.81-3.74s-2.15-3.74-4.81-3.74-4.81,1.68-4.81,3.74S63.45,297.6,66.11,297.6Z" transform="translate(-0.37 -1.66)"/><path id="bezier34" class="cls-11" d="M73.59,297.6c2.66,0,4.81-1.67,4.81-3.74s-2.15-3.74-4.81-3.74-4.81,1.68-4.81,3.74S70.94,297.6,73.59,297.6Z" transform="translate(-0.37 -1.66)"/><path id="bezier35" class="cls-11" d="M81.08,297.6c2.65,0,4.81-1.67,4.81-3.74s-2.16-3.74-4.81-3.74-4.81,1.68-4.81,3.74S78.42,297.6,81.08,297.6Z" transform="translate(-0.37 -1.66)"/><path id="bezier36" class="cls-11" d="M89.63,297.6c2.66,0,4.81-1.67,4.81-3.74s-2.15-3.74-4.81-3.74-4.81,1.68-4.81,3.74S87,297.6,89.63,297.6Z" transform="translate(-0.37 -1.66)"/><path id="bezier37" class="cls-11" d="M97.11,297.6c2.66,0,4.81-1.67,4.81-3.74s-2.15-3.74-4.81-3.74-4.81,1.68-4.81,3.74S94.45,297.6,97.11,297.6Z" transform="translate(-0.37 -1.66)"/><path id="bezier38" class="cls-11" d="M104.59,297.6c2.66,0,4.81-1.67,4.81-3.74s-2.15-3.74-4.81-3.74-4.81,1.68-4.81,3.74S101.94,297.6,104.59,297.6Z" transform="translate(-0.37 -1.66)"/><path id="bezier39" class="cls-11" d="M115.28,297.6c2.66,0,4.81-1.67,4.81-3.74s-2.15-3.74-4.81-3.74-4.81,1.68-4.81,3.74S112.63,297.6,115.28,297.6Z" transform="translate(-0.37 -1.66)"/><path id="bezier40" class="cls-11" d="M122.77,297.6c2.65,0,4.81-1.67,4.81-3.74s-2.16-3.74-4.81-3.74S118,291.8,118,293.86,120.11,297.6,122.77,297.6Z" transform="translate(-0.37 -1.66)"/><path id="bezier41" class="cls-11" d="M130.25,297.6c2.66,0,4.81-1.67,4.81-3.74s-2.15-3.74-4.81-3.74-4.81,1.68-4.81,3.74S127.59,297.6,130.25,297.6Z" transform="translate(-0.37 -1.66)"/><path id="bezier42" class="cls-11" d="M138.8,297.6c2.66,0,4.81-1.67,4.81-3.74s-2.15-3.74-4.81-3.74S134,291.8,134,293.86,136.14,297.6,138.8,297.6Z" transform="translate(-0.37 -1.66)"/><path id="bezier43" class="cls-11" d="M146.28,297.6c2.66,0,4.81-1.67,4.81-3.74s-2.15-3.74-4.81-3.74-4.81,1.68-4.81,3.74S143.63,297.6,146.28,297.6Z" transform="translate(-0.37 -1.66)"/><path id="bezier44" class="cls-11" d="M153.77,297.6c2.65,0,4.81-1.67,4.81-3.74s-2.16-3.74-4.81-3.74S149,291.8,149,293.86,151.11,297.6,153.77,297.6Z" transform="translate(-0.37 -1.66)"/><path id="bezier45" class="cls-11" d="M162.32,297.6c2.65,0,4.81-1.67,4.81-3.74s-2.16-3.74-4.81-3.74-4.81,1.68-4.81,3.74S159.66,297.6,162.32,297.6Z" transform="translate(-0.37 -1.66)"/><path id="bezier46" class="cls-11" d="M169.8,297.6c2.66,0,4.81-1.67,4.81-3.74s-2.15-3.74-4.81-3.74S165,291.8,165,293.86,167.14,297.6,169.8,297.6Z" transform="translate(-0.37 -1.66)"/><path id="bezier47" class="cls-11" d="M177.28,297.6c2.66,0,4.81-1.67,4.81-3.74s-2.15-3.74-4.81-3.74-4.81,1.68-4.81,3.74S174.63,297.6,177.28,297.6Z" transform="translate(-0.37 -1.66)"/><path id="bezier48" class="cls-14" d="M110.47,141.62c24.21,0,43.83-2.15,43.83-4.81s-19.62-4.8-43.83-4.8-43.82,2.15-43.82,4.8S86.27,141.62,110.47,141.62Z" transform="translate(-0.37 -1.66)"/><path id="bezier49" class="cls-7" d="M74.13,279.44c-20.08,0-36.35,6.69-36.35,14.95h72.69c0-8.26-16.27-14.95-36.34-14.95Z" transform="translate(-0.37 -1.66)"/><path id="bezier50" class="cls-7" d="M146.82,279.44c-20.07,0-36.35,6.69-36.35,14.95h72.69c0-8.26-16.27-14.95-36.34-14.95Z" transform="translate(-0.37 -1.66)"/><path id="bezier51" class="cls-15" d="M38.25,230.57c-2.06-2.88-4.89-4.38-6.33-3.35s-.94,4.2,1.12,7.07,4.9,4.38,6.34,3.36S40.31,233.45,38.25,230.57Z" transform="translate(-0.37 -1.66)"/></g><path id="bezier52" class="cls-16" d="M141.47,161.41c0,6.76-13.38,12.26-29.93,12.26s-29.93-5.51-29.93-12.26S95,149.1,111.54,149.1s29.93,5.5,29.93,12.31Z" transform="translate(-0.37 -1.66)"/><path id="bezier53" class="cls-3" d="M78.4,145.89v15h65.21v-15Z" transform="translate(-0.37 -1.66)"/></g></g></g></g></g></g></svg>