<svg xmlns="http://www.w3.org/2000/svg" viewBox="0 0 217 195.52"><defs><style>.cls-1{fill:#f3c6ae;}.cls-2,.cls-3,.cls-7{fill:#1a1819;}.cls-2{fill-opacity:0.38;}.cls-3{fill-opacity:0.3;}.cls-4{fill:#eca141;}.cls-5{fill:#f5ac2c;fill-opacity:0.5;}.cls-6{fill:#090909;}.cls-6,.cls-7{fill-opacity:0.05;}.cls-8{fill:none;stroke:#a48677;stroke-width:3px;}</style></defs><g id="Layer_2" data-name="Layer 2"><g id="Layer_1-2" data-name="Layer 1"><g id="group"><g id="page1"><g id="layer_1-3" data-name="layer 1"><g id="layer_1-4" data-name="layer 1"><path id="bezier9" class="cls-1" d="M14.43,128.21A14.43,14.43,0,1,0,0,113.79,14.43,14.43,0,0,0,14.43,128.21Z"/><path id="bezier10" class="cls-1" d="M202.57,128.21a14.43,14.43,0,1,0-14.43-14.42A14.43,14.43,0,0,0,202.57,128.21Z"/><path id="bezier11" class="cls-1" d="M109.57,195.52c52.84,0,95.67-33.49,95.67-74.79S162.41,46,109.57,46,13.9,79.43,13.9,120.73,56.73,195.52,109.57,195.52Z"/><path id="bezier12" class="cls-2" d="M65.21,123.71c0,9.33-7.42-12-16.57-12s-16.57,21.32-16.57,12a16.57,16.57,0,1,1,33.14,0Z"/><path id="bezier13" class="cls-2" d="M192.41,123.71c0,9.33-7.42-12-16.57-12s-16.56,21.32-16.56,12a16.57,16.57,0,1,1,33.13,0Z"/><path id="bezier14" class="cls-3" d="M174.24,94.76c11.85,0,21.55,8.15,22.38,18.49,0-.47.07-1,.07-1.43,0-11-10.05-19.93-22.45-19.93s-22.45,8.92-22.45,19.93c0,.48,0,1,.07,1.43.83-10.33,10.53-18.49,22.38-18.49Z"/><path id="bezier15" class="cls-3" d="M48.1,94.76c11.86,0,21.56,8.15,22.39,18.49,0-.47.06-1,.06-1.43,0-11-10-19.93-22.45-19.93s-22.44,8.92-22.44,19.93c0,.48,0,1,.06,1.43.83-10.33,10.53-18.49,22.38-18.49Z"/><path id="bezier16" class="cls-4" d="M205.1,65.18c.09-1,.14-2.07.14-3.11,0-13.34-7.55-25.62-20.21-35.38-1.53-1.18,5.18-15,3.51-16.06-1.42-.93-11.21,10.79-12.73,9.91-.73-.42-1.48-.84-2.23-1.24C170.8,17.79,174,1.38,170.9.07c-2.67-1.14-11.53,12.81-14.4,11.83a147.32,147.32,0,0,0-46.95-7.39c-51.86,0-94.07,24.81-95.65,55.77H205.1v4.9Z"/><path id="bezier17" class="cls-4" d="M205.24,58.77H13.9v59.82l83.27-26.3L149.3,75.83l55.94,42.76V58.77Z"/><path id="bezier19" class="cls-3" d="M110.1,131.41a5.34,5.34,0,0,1,5.24,4.28,5.33,5.33,0,0,0-5.24-6.41,5.34,5.34,0,0,0-5.34,5.34,5.39,5.39,0,0,0,.11,1.07,5.34,5.34,0,0,1,5.23-4.28Z"/><path id="bezier20" class="cls-5" d="M171.57,156a3.74,3.74,0,1,0-3.74-3.74A3.74,3.74,0,0,0,171.57,156Z"/><path id="bezier21" class="cls-5" d="M178,160.26a1.6,1.6,0,1,0-1.6-1.6A1.61,1.61,0,0,0,178,160.26Z"/><path id="bezier22" class="cls-5" d="M163.55,160.26a2.14,2.14,0,1,0-2.14-2.14A2.14,2.14,0,0,0,163.55,160.26Z"/><path id="bezier23" class="cls-5" d="M168.36,159.19a.54.54,0,1,0-.53-.53A.54.54,0,0,0,168.36,159.19Z"/><path id="bezier24" class="cls-5" d="M54,156a3.74,3.74,0,1,0-3.74-3.74A3.74,3.74,0,0,0,54,156Z"/><path id="bezier25" class="cls-5" d="M60.4,160.26a1.6,1.6,0,1,0-1.61-1.6A1.6,1.6,0,0,0,60.4,160.26Z"/><path id="bezier26" class="cls-5" d="M44.9,160.26a2.14,2.14,0,1,0-2.14-2.14A2.13,2.13,0,0,0,44.9,160.26Z"/><path id="bezier27" class="cls-5" d="M49.71,159.19a.54.54,0,1,0-.54-.53A.53.53,0,0,0,49.71,159.19Z"/><path id="bezier28" class="cls-6" d="M43.64,142.1a28.89,28.89,0,0,0-21.19,9.23c9.09,16,25.09,29,45,36.71A29.25,29.25,0,0,0,43.64,142.1Z"/><path id="bezier29" class="cls-6" d="M175.5,142.1a28.89,28.89,0,0,1,21.19,9.23c-9.09,16-25.09,29-45,36.71A29.25,29.25,0,0,1,175.5,142.1Z"/><path id="bezier48" class="cls-7" d="M110.1,140c24.21,0,43.83-2.15,43.83-4.81s-19.62-4.8-43.83-4.8-43.82,2.15-43.82,4.8S85.9,140,110.1,140Z"/></g><path id="bezier52" class="cls-8" d="M141.1,159.75c0,6.76-13.38,12.26-29.93,12.26s-29.93-5.51-29.93-12.26,13.38-12.31,29.93-12.31,29.93,5.5,29.93,12.31Z"/><path id="bezier53" class="cls-1" d="M78,144.23v15h65.21v-15Z"/></g></g></g></g></g></svg>