<svg xmlns="http://www.w3.org/2000/svg" xmlns:xlink="http://www.w3.org/1999/xlink" viewBox="0 0 282 336"><defs><style>.cls-1,.cls-16{fill:none;}.cls-2{fill:#f3f2f1;}.cls-3{clip-path:url(#clip-path);}.cls-4{fill:#f3c5ad;}.cls-14,.cls-5,.cls-9{fill:#1a1718;}.cls-5{fill-opacity:0.3;}.cls-6{fill:#3aa488;}.cls-7{fill:#fff;}.cls-8{fill:#d5a691;}.cls-9{fill-opacity:0.38;}.cls-10{fill:#eca042;}.cls-11{fill:#2c2723;}.cls-12{fill:#f6ac2c;fill-opacity:0.5;}.cls-13{fill:#070706;}.cls-13,.cls-14{fill-opacity:0.05;}.cls-15{fill:#f1b89c;}.cls-16{stroke:#a48677;stroke-width:3px;}</style><clipPath id="clip-path"><circle class="cls-1" cx="141" cy="141" r="141"/></clipPath></defs><g id="Layer_2" data-name="Layer 2"><g id="Layer_1-2" data-name="Layer 1"><circle id="oval2" class="cls-2" cx="141" cy="141" r="141"/><g class="cls-3"><g id="group"><g id="page1"><g id="layer_1-3" data-name="layer 1"><g id="layer_1-4" data-name="layer 1"><path id="bezier2" class="cls-4" d="M106.18,234.3c11.06,4.14,13.23,25.63,4.84,48s-24.15,37.17-35.2,33-13.23-25.64-4.84-48S95.13,230.16,106.18,234.3Z"/><path id="bezier" d="M85.45,313.56v17.1H198.76v-17.1Z"/><path id="bezier3" class="cls-5" d="M69.5,287.42c-1.68-1.11-1.74-5.52-.23-10.18q-.26.57-.48,1.17c-1.94,5.08-2,10.18-.2,11.39s4.88-1.93,6.82-7c.15-.41.29-.81.42-1.21-1.93,4.38-4.65,6.95-6.33,5.84Z"/><path id="bezier4" class="cls-4" d="M171.82,222.3c-11.06,4.14-13.23,25.63-4.84,48s24.15,37.17,35.2,33,13.23-25.64,4.84-48S182.87,218.16,171.82,222.3Z"/><path id="bezier5" class="cls-5" d="M195.56,296.25c-3.27,0-5.95-5-6.36-11.53q-.06.84-.06,1.71c0,7.32,2.87,13.25,6.41,13.25s6.42-5.93,6.42-13.25c0-.58,0-1.15-.07-1.71-.4,6.5-3.09,11.53-6.34,11.53Z"/><path id="bezier6" class="cls-6" d="M209.45,248.39l-19.56-27.77-15.76,7.24-1.4-4.57H109.82l-1.08,4-14.42-6.63L74.76,248.39l25,11.48L84.38,315.7H201l-17-55.61Z"/><path id="bezier7" class="cls-7" d="M142.1,252.67a18.16,18.16,0,1,0-18.17-18.16A18.17,18.17,0,0,0,142.1,252.67Z"/><path id="bezier8" class="cls-8" d="M142.07,249.4c8.25,0,14.93-6.24,14.93-13.93s-6.68-13.92-14.93-13.92-14.93,6.23-14.93,13.92S133.82,249.4,142.07,249.4Z"/><path id="bezier9" class="cls-4" d="M46.43,168.27A14.43,14.43,0,1,0,32,153.85,14.43,14.43,0,0,0,46.43,168.27Z"/><path id="bezier10" class="cls-4" d="M234.57,168.27a14.43,14.43,0,1,0-14.43-14.42A14.43,14.43,0,0,0,234.57,168.27Z"/><path id="bezier11" class="cls-4" d="M141.57,235.58c52.84,0,95.67-33.49,95.67-74.79S194.41,86,141.57,86,45.9,119.49,45.9,160.79,88.73,235.58,141.57,235.58Z"/><path id="bezier12" class="cls-9" d="M97.21,163.77c0,9.33-7.42-12-16.57-12s-16.57,21.32-16.57,12a16.57,16.57,0,1,1,33.14,0Z"/><path id="bezier13" class="cls-9" d="M224.41,163.77c0,9.33-7.42-12-16.57-12s-16.56,21.32-16.56,12a16.57,16.57,0,1,1,33.13,0Z"/><path id="bezier14" class="cls-5" d="M206.24,134.82c11.85,0,21.55,8.15,22.38,18.49,0-.47.07-.95.07-1.43,0-11-10.05-19.93-22.45-19.93s-22.45,8.92-22.45,19.93c0,.48,0,1,.07,1.43.83-10.33,10.53-18.49,22.38-18.49Z"/><path id="bezier15" class="cls-5" d="M80.1,134.82c11.86,0,21.56,8.15,22.39,18.49,0-.47.06-.95.06-1.43,0-11-10-19.93-22.45-19.93s-22.44,8.92-22.44,19.93c0,.48,0,1,.06,1.43.83-10.33,10.53-18.49,22.38-18.49Z"/><path id="bezier16" class="cls-10" d="M237.1,105.24c.09-1,.14-2.07.14-3.11,0-13.34-7.55-25.62-20.21-35.38-1.53-1.18,5.18-15,3.51-16.06-1.42-.93-11.21,10.79-12.73,9.91-.73-.42-1.48-.84-2.23-1.24-2.78-1.51.38-17.92-2.68-19.23C200.23,39,191.37,52.94,188.5,52a147.32,147.32,0,0,0-46.95-7.39c-51.86,0-94.07,24.81-95.65,55.77H237.1v4.9Z"/><path id="bezier17" class="cls-10" d="M237.24,98.83H45.9v59.82l83.27-26.3,52.13-16.46,55.94,42.76V98.83Z"/><path id="bezier18" class="cls-11" d="M141,317.84v13.89h1.07V317.84Z"/><path id="bezier19" class="cls-5" d="M142.1,171.47a5.34,5.34,0,0,1,5.24,4.28,5.33,5.33,0,0,0-5.24-6.41,5.34,5.34,0,0,0-5.34,5.34,5.39,5.39,0,0,0,.11,1.07,5.34,5.34,0,0,1,5.23-4.28Z"/><path id="bezier20" class="cls-12" d="M203.57,196.05a3.74,3.74,0,1,0-3.74-3.74A3.74,3.74,0,0,0,203.57,196.05Z"/><path id="bezier21" class="cls-12" d="M210,200.32a1.6,1.6,0,1,0-1.6-1.6A1.61,1.61,0,0,0,210,200.32Z"/><path id="bezier22" class="cls-12" d="M195.55,200.32a2.14,2.14,0,1,0-2.14-2.14A2.14,2.14,0,0,0,195.55,200.32Z"/><path id="bezier23" class="cls-12" d="M200.36,199.25a.54.54,0,1,0-.53-.53A.54.54,0,0,0,200.36,199.25Z"/><path id="bezier24" class="cls-12" d="M86,196.05a3.74,3.74,0,1,0-3.74-3.74A3.74,3.74,0,0,0,86,196.05Z"/><path id="bezier25" class="cls-12" d="M92.4,200.32a1.6,1.6,0,1,0-1.61-1.6A1.6,1.6,0,0,0,92.4,200.32Z"/><path id="bezier26" class="cls-12" d="M76.9,200.32a2.14,2.14,0,1,0-2.14-2.14A2.13,2.13,0,0,0,76.9,200.32Z"/><path id="bezier27" class="cls-12" d="M81.71,199.25a.54.54,0,1,0-.54-.53A.53.53,0,0,0,81.71,199.25Z"/><path id="bezier28" class="cls-13" d="M75.64,182.16a28.89,28.89,0,0,0-21.19,9.23c9.09,16,25.09,29,45,36.71a29.25,29.25,0,0,0-23.82-45.94Z"/><path id="bezier29" class="cls-13" d="M207.5,182.16a28.89,28.89,0,0,1,21.19,9.23c-9.09,16-25.09,29-45,36.71a29.25,29.25,0,0,1,23.82-45.94Z"/><path id="bezier30" class="cls-11" d="M74.22,336c2.66,0,4.81-1.67,4.81-3.74s-2.15-3.74-4.81-3.74-4.81,1.68-4.81,3.74S71.57,336,74.22,336Z"/><path id="bezier31" class="cls-11" d="M81.71,336c2.65,0,4.81-1.67,4.81-3.74s-2.16-3.74-4.81-3.74-4.81,1.68-4.81,3.74S79.05,336,81.71,336Z"/><path id="bezier32" class="cls-11" d="M89.19,336c2.66,0,4.81-1.67,4.81-3.74s-2.15-3.74-4.81-3.74-4.81,1.68-4.81,3.74S86.53,336,89.19,336Z"/><path id="bezier33" class="cls-11" d="M97.74,336c2.66,0,4.81-1.67,4.81-3.74s-2.15-3.74-4.81-3.74-4.81,1.68-4.81,3.74S95.08,336,97.74,336Z"/><path id="bezier34" class="cls-11" d="M105.22,336c2.66,0,4.81-1.67,4.81-3.74s-2.15-3.74-4.81-3.74-4.81,1.68-4.81,3.74S102.57,336,105.22,336Z"/><path id="bezier35" class="cls-11" d="M112.71,336c2.65,0,4.81-1.67,4.81-3.74s-2.16-3.74-4.81-3.74-4.81,1.68-4.81,3.74S110.05,336,112.71,336Z"/><path id="bezier36" class="cls-11" d="M121.26,336c2.66,0,4.81-1.67,4.81-3.74s-2.15-3.74-4.81-3.74-4.81,1.68-4.81,3.74S118.6,336,121.26,336Z"/><path id="bezier37" class="cls-11" d="M128.74,336c2.66,0,4.81-1.67,4.81-3.74s-2.15-3.74-4.81-3.74-4.81,1.68-4.81,3.74S126.08,336,128.74,336Z"/><path id="bezier38" class="cls-11" d="M136.22,336c2.66,0,4.81-1.67,4.81-3.74s-2.15-3.74-4.81-3.74-4.81,1.68-4.81,3.74S133.57,336,136.22,336Z"/><path id="bezier39" class="cls-11" d="M146.91,336c2.66,0,4.81-1.67,4.81-3.74s-2.15-3.74-4.81-3.74-4.81,1.68-4.81,3.74S144.26,336,146.91,336Z"/><path id="bezier40" class="cls-11" d="M154.4,336c2.65,0,4.81-1.67,4.81-3.74s-2.16-3.74-4.81-3.74-4.81,1.68-4.81,3.74S151.74,336,154.4,336Z"/><path id="bezier41" class="cls-11" d="M161.88,336c2.66,0,4.81-1.67,4.81-3.74s-2.15-3.74-4.81-3.74-4.81,1.68-4.81,3.74S159.22,336,161.88,336Z"/><path id="bezier42" class="cls-11" d="M170.43,336c2.66,0,4.81-1.67,4.81-3.74s-2.15-3.74-4.81-3.74-4.81,1.68-4.81,3.74S167.77,336,170.43,336Z"/><path id="bezier43" class="cls-11" d="M177.91,336c2.66,0,4.81-1.67,4.81-3.74s-2.15-3.74-4.81-3.74-4.81,1.68-4.81,3.74S175.26,336,177.91,336Z"/><path id="bezier44" class="cls-11" d="M185.4,336c2.65,0,4.81-1.67,4.81-3.74s-2.16-3.74-4.81-3.74-4.81,1.68-4.81,3.74S182.74,336,185.4,336Z"/><path id="bezier45" class="cls-11" d="M194,336c2.65,0,4.81-1.67,4.81-3.74s-2.16-3.74-4.81-3.74-4.81,1.68-4.81,3.74S191.29,336,194,336Z"/><path id="bezier46" class="cls-11" d="M201.43,336c2.66,0,4.81-1.67,4.81-3.74s-2.15-3.74-4.81-3.74-4.81,1.68-4.81,3.74S198.77,336,201.43,336Z"/><path id="bezier47" class="cls-11" d="M208.91,336c2.66,0,4.81-1.67,4.81-3.74s-2.15-3.74-4.81-3.74-4.81,1.68-4.81,3.74S206.26,336,208.91,336Z"/><path id="bezier48" class="cls-14" d="M142.1,180c24.21,0,43.83-2.15,43.83-4.81s-19.62-4.8-43.83-4.8-43.82,2.15-43.82,4.8S117.9,180,142.1,180Z"/><path id="bezier49" class="cls-7" d="M105.76,317.84c-20.08,0-36.35,6.69-36.35,15H142.1c0-8.26-16.27-15-36.34-15Z"/><path id="bezier50" class="cls-7" d="M178.45,317.84c-20.07,0-36.35,6.69-36.35,15h72.69c0-8.26-16.27-15-36.34-15Z"/><path id="bezier51" class="cls-15" d="M69.88,269c-2.06-2.88-4.89-4.38-6.33-3.35s-.94,4.2,1.12,7.07,4.9,4.38,6.34,3.36S71.94,271.85,69.88,269Z"/></g><path id="bezier52" class="cls-16" d="M173.1,199.81c0,6.76-13.38,12.26-29.93,12.26s-29.93-5.51-29.93-12.26,13.38-12.31,29.93-12.31,29.93,5.5,29.93,12.31Z"/><path id="bezier53" class="cls-4" d="M110,184.29v15h65.21v-15Z"/></g></g></g></g></g></g></svg>